HIERARCHY
ROOT Hips
{
	OFFSET -3.958830 18.904000 13.208200
	CHANNELS 6 Xposition Yposition Zposition Zrotation Yrotation Xrotation 
	JOINT LHipJoint
	{
		OFFSET 0.000000 0.000000 0.000000
		CHANNELS 3 Zrotation Yrotation Xrotation
		JOINT LeftUpLeg
		{
			OFFSET 1.800000 -1.400000 0.085000
			CHANNELS 3 Zrotation Yrotation Xrotation
			JOINT LeftLeg
			{
				OFFSET 2.215000 -6.000000 0.000000
				CHANNELS 3 Zrotation Yrotation Xrotation
				JOINT LeftFoot
				{
					OFFSET 2.500000 -6.900000 0.000000
					CHANNELS 3 Zrotation Yrotation Xrotation
					JOINT LeftToeBase
					{
						OFFSET 0.200000 -0.500000 1.950000
						CHANNELS 3 Zrotation Yrotation Xrotation
						End Site
						{
							OFFSET 0.000000 0.000000 0.000000
						}
					}
				}
			}
		}
	}
	JOINT RHipJoint
	{
		OFFSET 0.000000 0.000000 0.000000
		CHANNELS 3 Zrotation Yrotation Xrotation
		JOINT RightUpLeg
		{
			OFFSET -1.800000 -1.400000 0.085000
			CHANNELS 3 Zrotation Yrotation Xrotation
			JOINT RightLeg
			{
				OFFSET -2.215000 -6.000000 0.000000
				CHANNELS 3 Zrotation Yrotation Xrotation
				JOINT RightFoot
				{
					OFFSET -2.500000 -6.900000 0.000000
					CHANNELS 3 Zrotation Yrotation Xrotation
					JOINT RightToeBase
					{
						OFFSET -0.200000 -0.500000 1.950000
						CHANNELS 3 Zrotation Yrotation Xrotation
						End Site
						{
							OFFSET 0.000000 0.000000 0.000000
						}
					}
				}
			}
		}
	}
	JOINT LowerBack
	{
		OFFSET 0.000000 0.000000 0.000000
		CHANNELS 3 Zrotation Yrotation Xrotation
		JOINT Spine
		{
			OFFSET -0.087000 1.940000 -0.288900
			CHANNELS 3 Zrotation Yrotation Xrotation
			JOINT Spine1
			{
				OFFSET 0.000000 1.950000 0.060000
				CHANNELS 3 Zrotation Yrotation Xrotation
				JOINT Neck
				{
					OFFSET 0.000000 0.000000 0.000000
					CHANNELS 3 Zrotation Yrotation Xrotation
					JOINT Neck1
					{
						OFFSET 0.000000 1.600000 0.340000
						CHANNELS 3 Zrotation Yrotation Xrotation
						JOINT Head
						{
							OFFSET 0.000000 1.667000 -0.240000
							CHANNELS 3 Zrotation Yrotation Xrotation
							End Site
							{
								OFFSET 0.000000 0.000000 0.000000
							}
						}
					}
				}
				JOINT LeftShoulder
				{
					OFFSET 0.000000 0.000000 0.000000
					CHANNELS 3 Zrotation Yrotation Xrotation
					JOINT LeftArm
					{
						OFFSET 2.700000 1.550000 -0.730000
						CHANNELS 3 Zrotation Yrotation Xrotation
						JOINT LeftForeArm
						{
							OFFSET 5.450000 0.000000 0.000000
							CHANNELS 3 Zrotation Yrotation Xrotation
							JOINT LeftHand
							{
								OFFSET 3.450000 0.000000 0.000000
								CHANNELS 3 Zrotation Yrotation Xrotation
								JOINT LeftHandIndex1
								{
									OFFSET 0.750000 0.000000 0.000000
									CHANNELS 3 Zrotation Yrotation Xrotation
									End Site
									{
										OFFSET 0.000000 0.000000 0.000000
									}
								}
							}
						}
					}
				}
				JOINT RightShoulder
				{
					OFFSET 0.000000 0.000000 0.000000
					CHANNELS 3 Zrotation Yrotation Xrotation
					JOINT RightArm
					{
						OFFSET -2.700000 1.550000 -0.730000
						CHANNELS 3 Zrotation Yrotation Xrotation
						JOINT RightForeArm
						{
							OFFSET -5.450000 0.000000 0.000000
							CHANNELS 3 Zrotation Yrotation Xrotation
							JOINT RightHand
							{
								OFFSET -3.450000 0.000000 0.000000
								CHANNELS 3 Zrotation Yrotation Xrotation
								JOINT RightHandIndex1
								{
									OFFSET -0.750000 0.000000 0.000000
									CHANNELS 3 Zrotation Yrotation Xrotation
									End Site
									{
										OFFSET 0.000000 0.000000 0.000000
									}
								}
							}
						}
					}
				}
			}
		}
	}
}
MOTION
Frames: 14
Frame Time: 0.016667
-0.313930 17.128080 -1.133420 -7.107741 -1.978460 -15.091574 -13.678076 10.182489 1.715869 2.509125 -0.576557 -3.602018 -1.127995 2.972242 7.440908 -1.209888 3.686942 3.626395 0.078800 -0.285380 -0.367590 20.044439 -13.438871 3.822395 0.046148 -3.966082 14.541611 5.400938 -6.914933 1.645737 -1.469208 -6.320405 2.097583 -0.045410 0.929270 0.669970 -8.254278 7.099913 -8.254482 44.146259 5.790821 7.251823 -19.107123 5.533703 34.358821 17.770336 -9.510107 -21.263221 -18.430581 -0.095636 57.940172 4.030870 -17.165430 -26.146690 -33.767340 -40.709453 20.851526 -38.935529 -20.231487 0.760547 0.547855 -11.919868 -2.459297 -3.535607 2.801511 1.099410 0.083310 0.233160 0.465190 5.765673 56.420051 4.605537 3.797968 28.280269 -39.314325 -69.523138 43.979918 -25.558514 4.351249 -0.837691 -0.457460 0.805490 0.557580 0.211140 
-0.309050 17.127350 -1.130400 -7.106663 -2.073518 -15.122666 -13.681339 10.174675 1.717988 2.481650 -0.609926 -3.528628 -1.100487 2.957552 7.383397 -1.186640 3.678175 3.632030 0.074500 -0.285510 -0.373920 20.042851 -13.438040 3.819053 0.020957 -3.973365 14.614644 5.322160 -6.908139 1.636428 -1.470864 -6.326083 2.099613 -0.053030 0.929500 0.672340 -8.248716 7.114110 -8.261561 44.461939 5.875567 7.154478 -19.290962 5.701401 34.412212 17.896951 -9.363924 -21.448081 -18.331592 -0.222563 58.296232 3.974100 -17.424970 -25.719270 -33.810507 -40.924464 21.041410 -38.806720 -20.236313 0.976746 0.335333 -11.485027 -2.369573 -3.539919 2.799675 1.087080 0.084920 0.235070 0.468670 5.536440 56.714413 4.453381 3.726543 27.800358 -39.980569 -70.636835 44.786566 -25.946022 4.404833 -0.838125 -0.445940 0.798570 0.552570 0.220460 
-0.299580 17.127940 -1.124940 -7.199143 -2.242257 -15.280173 -13.697992 10.216186 1.730867 2.526435 -0.657740 -3.371980 -0.968901 2.946667 7.403199 -1.141725 3.671440 3.632390 0.053790 -0.298690 -0.387900 20.019140 -13.407486 3.823984 0.051988 -4.024936 14.856479 5.234358 -6.907321 1.641029 -1.470943 -6.326174 2.103933 -0.076110 0.920410 0.671740 -8.184968 7.018756 -8.254246 45.173505 5.864615 7.179177 -19.709249 5.992912 34.339881 18.167260 -9.065202 -21.880683 -18.305245 -0.373047 59.267896 3.605010 -17.919200 -24.998800 -34.257825 -41.274463 21.566053 -38.463918 -19.903381 1.094502 0.148879 -11.080641 -2.264753 -3.534701 2.790091 1.071430 0.080830 0.242580 0.463660 5.292233 57.398877 4.069240 3.559152 26.754078 -40.771085 -72.765700 46.499571 -26.812771 4.494651 -0.827310 -0.427810 0.784580 0.550940 0.233370 
-0.285710 17.127110 -1.116510 -7.405675 -2.315766 -15.404413 -13.727176 10.313069 1.757877 2.696328 -0.721490 -3.359984 -0.901450 2.960044 7.493134 -1.109853 3.683874 3.624866 0.019930 -0.338380 -0.406140 19.973318 -13.338886 3.840496 0.255017 -4.122805 15.138806 5.117300 -6.896908 1.598849 -1.463955 -6.308814 2.117907 -0.111860 0.913770 0.666570 -8.061564 6.795409 -8.216961 46.052573 5.779759 7.231859 -20.210834 6.369875 33.864711 18.288889 -8.675940 -22.287385 -18.278129 -0.491591 60.430327 3.258770 -18.400620 -24.213680 -34.957714 -41.477765 21.946841 -38.406909 -19.120411 1.064024 -0.031300 -11.060650 -2.216264 -3.525653 2.770218 1.073330 0.074760 0.243630 0.452100 5.418532 57.950093 3.851421 3.831328 25.599685 -40.724392 -76.655390 48.348635 -28.584771 4.403539 -0.725059 -0.424280 0.773500 0.561990 0.235230 
-0.273740 17.125550 -1.110790 -7.521128 -2.322442 -15.653970 -13.756384 10.411031 1.795952 2.737161 -0.787111 -3.247741 -0.773510 2.955408 7.550716 -1.070425 3.673769 3.621979 0.017030 -0.342920 -0.403330 19.927744 -13.266639 3.855479 0.458951 -4.244985 15.477357 4.830813 -6.864612 1.581213 -1.470379 -6.284515 2.132678 -0.133150 0.885160 0.659240 -7.937239 6.563258 -8.167013 46.775417 5.620260 7.518601 -20.546231 6.637016 33.430938 18.422139 -8.503161 -22.556637 -18.644945 -0.530242 61.180612 3.140400 -18.809030 -24.180300 -35.580775 -41.567288 22.155971 -38.278602 -18.535337 0.941617 -0.323192 -11.243470 -2.165008 -3.490769 2.765081 1.079980 0.051470 0.258380 0.450030 5.509427 58.493947 3.594786 4.017989 24.124978 -40.328857 -81.673339 50.135938 -31.046601 4.232983 -0.589479 -0.408740 0.755150 0.548840 0.236560 
-0.261130 17.122120 -1.108590 -7.670956 -2.182453 -15.897373 -13.786169 10.524738 1.829036 2.779984 -0.847513 -3.300912 -0.589022 2.945333 7.730699 -1.025161 3.656549 3.624327 0.012680 -0.349170 -0.399860 19.879825 -13.188411 3.877159 0.759793 -4.384620 15.748530 4.578871 -6.817901 1.529855 -1.474994 -6.252685 2.145921 -0.157070 0.863030 0.657960 -7.806467 6.303167 -8.114766 47.423241 5.384482 7.865550 -20.894804 6.885584 32.855016 18.497988 -8.325799 -22.714800 -18.938385 -0.643150 61.691613 3.077850 -19.218770 -23.994610 -36.034546 -41.515122 22.113485 -38.212702 -18.052195 0.948741 -0.788006 -11.270047 -2.081493 -3.467901 2.761083 1.078960 0.032460 0.272900 0.449890 5.504257 58.742085 3.446043 3.912655 22.775498 -38.753605 -86.916415 50.298862 -33.439555 3.909266 -0.403068 -0.389000 0.734390 0.534130 0.243230 
-0.244050 17.117900 -1.109720 -7.859947 -1.690060 -16.122438 -13.824778 10.661802 1.870492 2.764996 -0.910772 -3.498040 -0.425597 2.932938 7.883827 -0.983912 3.640327 3.624774 -0.004860 -0.366520 -0.413410 19.823223 -13.079074 3.894197 1.090800 -4.524157 15.956180 4.469663 -6.779279 1.520394 -1.467872 -6.218148 2.162096 -0.183040 0.853650 0.653770 -7.650629 5.950951 -8.050757 47.928215 4.965242 8.197458 -21.228864 6.990442 32.137199 18.414269 -8.178843 -22.836789 -19.391216 -0.562005 62.008204 3.349310 -19.554550 -23.454890 -36.248084 -41.305839 21.752758 -38.444715 -17.670204 1.029413 -1.210148 -11.321623 -2.007886 -3.459413 2.755721 1.072660 0.021730 0.277380 0.448810 5.502073 58.589381 3.664036 3.361674 21.612390 -36.087749 -91.756250 49.034483 -35.811866 3.537097 -0.252959 -0.376050 0.716270 0.529970 0.252280 
-0.229960 17.112400 -1.107650 -7.966379 -1.196668 -16.314780 -13.864707 10.805786 1.918914 2.755533 -0.954836 -3.676073 -0.346817 2.935449 7.941847 -0.950001 3.638624 3.625108 -0.024540 -0.392660 -0.428740 19.764779 -12.959792 3.907856 1.359636 -4.634356 16.140095 4.387937 -6.751228 1.544903 -1.457126 -6.186152 2.182265 -0.211230 0.853280 0.647580 -7.495869 5.556353 -7.994467 48.127006 4.543070 8.574340 -21.319762 7.012690 31.527145 18.216490 -8.059531 -23.157762 -20.057311 -0.354753 62.291184 3.763600 -19.921540 -22.679300 -36.314278 -41.082214 21.119299 -38.768664 -17.232737 1.138903 -1.753509 -11.355920 -1.929836 -3.454922 2.745480 1.071090 0.015590 0.274320 0.449190 5.624050 58.234614 4.587107 2.645403 20.347502 -33.684259 -96.984757 47.537541 -38.818435 3.232741 -0.154707 -0.370940 0.703220 0.529670 0.257940 
-0.216420 17.105260 -1.102120 -8.119124 -0.823963 -16.389707 -13.904361 10.926668 1.964046 2.902063 -0.991617 -3.818051 -0.457292 2.949507 7.727473 -0.916958 3.645028 3.623605 -0.048100 -0.417550 -0.457020 19.711426 -12.842965 3.914566 1.623333 -4.738700 16.269202 4.421132 -6.734859 1.572171 -1.446710 -6.159284 2.200134 -0.236950 0.862120 0.642960 -7.354266 5.201084 -7.935945 48.415453 4.130795 8.814641 -21.509841 7.023942 30.905031 18.032663 -8.166004 -23.393904 -21.213426 0.113603 62.382256 4.413200 -20.296780 -22.063410 -36.066164 -40.566795 20.171117 -39.397541 -16.878283 1.321419 -2.181456 -11.309841 -1.866799 -3.459489 2.734700 1.068000 0.012450 0.269760 0.453000 5.491495 57.487527 5.743340 1.689647 19.291426 -30.964709 -101.768275 45.494438 -42.059995 2.980540 -0.124967 -0.367170 0.695670 0.535320 0.269610 
-0.200560 17.099490 -1.095790 -8.201726 -0.535011 -16.407739 -13.945005 11.050847 2.020063 3.004811 -1.030630 -3.972458 -0.703869 2.992518 7.514688 -0.875443 3.655993 3.619617 -0.071220 -0.437780 -0.484180 19.655550 -12.721673 3.919005 1.803042 -4.808373 16.342941 4.416754 -6.700548 1.575722 -1.430961 -6.127361 2.221756 -0.260670 0.869940 0.637690 -7.209614 4.830165 -7.877921 48.607049 3.657080 9.087770 -21.780501 7.029826 30.199943 17.860242 -8.330290 -23.613780 -22.495045 0.697574 62.354009 4.764720 -20.581390 -21.192970 -35.986020 -39.715364 19.064922 -39.911276 -16.400750 1.347591 -2.648277 -11.428641 -1.806312 -3.466300 2.727294 1.053840 0.013390 0.263410 0.455260 5.494132 56.390140 7.155270 0.478143 18.238799 -28.050957 -106.226482 43.474083 -45.829711 2.789515 -0.162243 -0.358130 0.686550 0.539190 0.283320 
-0.185330 17.095460 -1.092380 -8.229388 -0.536736 -16.515634 -13.987839 11.195832 2.090310 3.245669 -1.047910 -3.972232 -1.155315 3.092082 7.309587 -0.854884 3.707857 3.599775 -0.089590 -0.460660 -0.504750 19.589292 -12.602136 3.922399 1.912634 -4.867902 16.435488 4.343573 -6.699188 1.779281 -1.421468 -6.090897 2.242908 -0.280760 0.871570 0.631510 -7.044788 4.428792 -7.826122 48.893441 3.047429 9.803822 -22.345469 7.155897 29.377699 17.946535 -8.435913 -23.842749 -23.743229 1.339532 62.488990 5.149850 -20.788680 -21.214290 -36.022855 -38.591046 17.947820 -40.173938 -15.863730 1.048759 -2.889105 -11.986228 -1.826980 -3.458759 2.711775 1.068480 0.005190 0.263620 0.454430 5.063374 55.093216 8.441787 -1.118072 16.818062 -25.554704 -110.130677 41.911345 -49.871026 2.641826 -0.228471 -0.362680 0.687540 0.549400 0.284290 
-0.166530 17.093420 -1.090530 -8.337108 -0.873152 -16.519450 -14.030273 11.344008 2.156123 3.506319 -1.086542 -4.035167 -1.386486 3.135306 7.115226 -0.841640 3.744560 3.583857 -0.094550 -0.474320 -0.508650 19.521181 -12.496999 3.926945 2.064487 -4.914165 16.366360 4.281300 -6.693415 2.060748 -1.413955 -6.040619 2.263786 -0.295670 0.864330 0.635390 -6.876916 4.057326 -7.768343 49.504442 2.358824 10.577766 -23.356133 7.413930 28.324913 18.196281 -8.499589 -23.878443 -24.793932 1.917685 62.511564 5.153120 -20.825740 -21.572240 -35.914415 -37.036839 16.632507 -40.490822 -15.360142 0.706596 -2.995986 -12.590324 -1.874945 -3.453376 2.701738 1.087250 -0.004800 0.271790 0.453540 4.096005 53.323334 9.579218 -2.786484 15.458323 -23.026585 -113.644310 40.696146 -54.474660 2.507306 -0.317917 -0.361680 0.683270 0.553400 0.280780 
-0.143080 17.094670 -1.091030 -8.594863 -1.557481 -16.625515 -14.084212 11.542928 2.234760 3.930467 -1.119339 -3.960390 -1.524157 3.172730 6.889553 -0.824937 3.784576 3.559307 -0.086580 -0.474590 -0.497110 19.432139 -12.365879 3.941004 2.303893 -5.002988 16.373006 4.160373 -6.687187 2.418327 -1.418000 -5.974811 2.280306 -0.308740 0.832690 0.641070 -6.658685 3.569430 -7.710767 50.404825 1.373212 11.829590 -24.790644 7.714393 27.022259 18.796715 -8.422466 -23.991983 -25.819281 2.525789 62.840077 5.043700 -20.845680 -22.740780 -36.068879 -35.204243 15.360639 -40.767426 -14.735026 0.005238 -2.471307 -13.514398 -2.035386 -3.420622 2.707246 1.119730 -0.033330 0.296260 0.447760 2.589833 51.420207 10.566425 -5.019754 13.623351 -20.596914 -116.969217 39.793774 -59.738229 2.387610 -0.442074 -0.352580 0.671040 0.550430 0.271720 
-0.123160 17.096260 -1.089840 -8.686778 -2.188535 -16.709619 -14.140412 11.718015 2.307013 4.247936 -1.156922 -3.807198 -1.742302 3.228501 6.660146 -0.800247 3.821073 3.534478 -0.077390 -0.466410 -0.486950 19.350727 -12.231479 3.940909 2.428344 -5.064792 16.402414 3.929116 -6.654648 2.687662 -1.424781 -5.909195 2.297145 -0.318390 0.799210 0.638020 -6.452543 3.097392 -7.659939 51.038925 0.485864 12.976655 -26.274051 8.032180 25.722451 19.314469 -8.213883 -24.185754 -26.833846 3.283959 63.692084 5.407560 -20.995410 -23.680950 -35.431037 -33.499667 14.021363 -41.111520 -14.359967 -0.450880 -2.425929 -14.521510 -2.112416 -3.383469 2.707476 1.148290 -0.065920 0.323140 0.444190 0.517958 49.384676 11.692788 -7.330493 11.121600 -18.477143 -119.966813 39.087297 -65.184046 2.295533 -0.592175 -0.342390 0.661700 0.541680 0.266990 
